# xmcd
#
# Track frame offsets: 
#        150
#        20166
#        39262
#        43489
#        66594
#        82324
#        90125
#        107883
#        123949
#        142010
#        144969
#        166283
#        168275
#        190101
#        193922
#        214545
#        217424
#
# Disc length: 3171 seconds
#
# Revision: 0
# Processed by: cddbd v1.5.1PL0 Copyright (c) Steve Scherf et al.
# Submitted via: ExactAudioCopy v0.95a5
#
DISCID=040c6111
DTITLE=Hot Toddy - The Salty Sessions - Vol. II
DYEAR=2004
DGENRE=Folk
TTITLE0=I Can't Be Satisfied
TTITLE1=Be With Me
TTITLE2=School House
TTITLE3=Monty
TTITLE4=Century Sam
TTITLE5=Jacob's Lullaby
TTITLE6=Three Daisies
TTITLE7=Dusty Ol' Relic
TTITLE8=You Can Only Do
TTITLE9=Fire Escape
TTITLE10=Steppin' Out
TTITLE11=Room
TTITLE12=60 Minute Man
TTITLE13=2nd Fridge
TTITLE14=Rocks Would Roll
TTITLE15=3rd Floor
TTITLE16=Monty (The Professor Undressor Remix)
EXTD=
EXTT0=
EXTT1=
EXTT2=
EXTT3=
EXTT4=
EXTT5=
EXTT6=
EXTT7=
EXTT8=
EXTT9=
EXTT10=
EXTT11=
EXTT12=
EXTT13=
EXTT14=
EXTT15=
EXTT16=
PLAYORDER=
